<svg xmlns="http://www.w3.org/2000/svg" width="20" height="20" viewBox="0 0 20 20" fill="none">
  <path d="M10.6243 7.5013C10.6243 7.15612 10.3445 6.8763 9.99935 6.8763C9.65417 6.8763 9.37435 7.15612 9.37435 7.5013L9.37435 9.37632H7.49935C7.15417 9.37632 6.87435 9.65615 6.87435 10.0013C6.87435 10.3465 7.15417 10.6263 7.49935 10.6263H9.37435V12.5013C9.37435 12.8465 9.65417 13.1263 9.99935 13.1263C10.3445 13.1263 10.6243 12.8465 10.6243 12.5013L10.6243 10.6263H12.4993C12.8445 10.6263 13.1243 10.3465 13.1243 10.0013C13.1243 9.65615 12.8445 9.37632 12.4993 9.37632H10.6243V7.5013Z" fill="#1C274C"/>
  <path fill-rule="evenodd" clip-rule="evenodd" d="M9.99935 1.04297C5.0518 1.04297 1.04102 5.05375 1.04102 10.0013C1.04102 14.9489 5.0518 18.9596 9.99935 18.9596C14.9469 18.9596 18.9577 14.9489 18.9577 10.0013C18.9577 5.05375 14.9469 1.04297 9.99935 1.04297ZM2.29102 10.0013C2.29102 5.74411 5.74215 2.29297 9.99935 2.29297C14.2565 2.29297 17.7077 5.74411 17.7077 10.0013C17.7077 14.2585 14.2565 17.7096 9.99935 17.7096C5.74215 17.7096 2.29102 14.2585 2.29102 10.0013Z" fill="#1C274C"/>
</svg>