 <svg xmlns="http://www.w3.org/2000/svg" width="16" height="16" viewBox="0 0 16 16" fill="none">
  <path d="M8.00067 1.83301C7.34834 1.83301 6.79205 2.24969 6.5859 2.83296C6.49387 3.09332 6.20821 3.22978 5.94785 3.13776C5.68749 3.04574 5.55103 2.76008 5.64306 2.49972C5.98601 1.5294 6.91138 0.833008 8.00067 0.833008C9.08997 0.833008 10.0153 1.5294 10.3583 2.49972C10.4503 2.76008 10.3138 3.04574 10.0535 3.13776C9.79313 3.22978 9.50747 3.09332 9.41545 2.83296C9.20929 2.24969 8.653 1.83301 8.00067 1.83301Z" fill="#1A1B1D"/>
  <path d="M1.83398 3.99967C1.83398 3.72353 2.05784 3.49967 2.33398 3.49967H13.6674C13.9435 3.49967 14.1674 3.72353 14.1674 3.99967C14.1674 4.27582 13.9435 4.49967 13.6674 4.49967H2.33398C2.05784 4.49967 1.83398 4.27582 1.83398 3.99967Z" fill="#1A1B1D"/>
  <path d="M3.94404 5.63308C3.92567 5.35755 3.68742 5.14908 3.41189 5.16745C3.13636 5.18582 2.92789 5.42407 2.94626 5.6996L3.25522 10.3341C3.31222 11.1893 3.35826 11.88 3.46624 12.4221C3.57851 12.9856 3.76945 13.4563 4.16385 13.8253C4.55825 14.1943 5.04061 14.3535 5.61038 14.428C6.15841 14.4997 6.8507 14.4997 7.70776 14.4997H8.29365C9.15071 14.4997 9.843 14.4997 10.391 14.428C10.9608 14.3535 11.4432 14.1943 11.8376 13.8253C12.232 13.4563 12.4229 12.9856 12.5352 12.4221C12.6431 11.88 12.6892 11.1893 12.7462 10.3341L13.0552 5.6996C13.0735 5.42407 12.865 5.18582 12.5895 5.16745C12.314 5.14908 12.0757 5.35755 12.0574 5.63308L11.7507 10.2325C11.6908 11.1311 11.6481 11.7563 11.5544 12.2267C11.4635 12.683 11.3366 12.9245 11.1544 13.095C10.9721 13.2656 10.7227 13.3761 10.2613 13.4365C9.78572 13.4987 9.15905 13.4997 8.25849 13.4997H7.74292C6.84235 13.4997 6.21568 13.4987 5.74008 13.4365C5.27875 13.3761 5.02931 13.2656 4.84703 13.095C4.66476 12.9245 4.53787 12.683 4.44697 12.2267C4.35326 11.7563 4.31057 11.1311 4.25067 10.2325L3.94404 5.63308Z" fill="#1A1B1D"/>
  <path d="M6.28429 6.83549C6.55906 6.80801 6.80408 7.00848 6.83156 7.28326L7.16489 10.6166C7.19237 10.8914 6.9919 11.1364 6.71713 11.1639C6.44236 11.1913 6.19733 10.9909 6.16986 10.7161L5.83652 7.38276C5.80905 7.10799 6.00952 6.86297 6.28429 6.83549Z" fill="#1A1B1D"/>
  <path d="M10.1649 7.38276C10.1924 7.10799 9.9919 6.86297 9.71713 6.83549C9.44236 6.80801 9.19733 7.00848 9.16986 7.28326L8.83652 10.6166C8.80905 10.8914 9.00952 11.1364 9.28429 11.1639C9.55906 11.1913 9.80408 10.9909 9.83156 10.7161L10.1649 7.38276Z" fill="#1A1B1D"/>
</svg>