<svg xmlns="http://www.w3.org/2000/svg" width="16" height="16" viewBox="0 0 16 16" fill="none">
  <g clip-path="url(#clip0_2440_10145)">
    <path fill-rule="evenodd" clip-rule="evenodd" d="M9.83841 1.74731C11.0575 0.528242 13.034 0.528242 14.253 1.74731C15.4721 2.96637 15.4721 4.94287 14.253 6.16193L7.9295 12.4855C7.56822 12.8468 7.35555 13.0595 7.11895 13.244C6.84009 13.4615 6.53835 13.648 6.21909 13.8001C5.94823 13.9292 5.66288 14.0243 5.17814 14.1859L2.95739 14.9261L2.42267 15.1044C1.98896 15.249 1.5108 15.1361 1.18753 14.8128C0.864265 14.4895 0.751386 14.0114 0.895955 13.5777L1.81444 10.8222C1.976 10.3375 2.07111 10.0521 2.2002 9.78125C2.35235 9.46199 2.53883 9.16025 2.75634 8.88139C2.94088 8.64479 3.15358 8.43211 3.5149 8.07082L9.83841 1.74731ZM2.93432 13.8797L4.82867 13.2483C5.35608 13.0725 5.58017 12.9969 5.78887 12.8974C6.04257 12.7765 6.28233 12.6283 6.50393 12.4555C6.68623 12.3133 6.85407 12.1467 7.24718 11.7536L12.2935 6.70725C11.7677 6.52182 11.0904 6.17809 10.4563 5.54401C9.82225 4.90993 9.47852 4.2326 9.29309 3.70684L4.24677 8.75316C3.85366 9.14627 3.68704 9.31411 3.54485 9.49641C3.37201 9.71801 3.22383 9.95777 3.10292 10.2115C3.00346 10.4202 2.92785 10.6443 2.75205 11.1717L2.1206 13.066L2.93432 13.8797ZM10.1042 2.8957C10.127 3.01234 10.1656 3.1709 10.2299 3.35626C10.3746 3.77356 10.6481 4.3216 11.1634 4.83691C11.6787 5.35221 12.2268 5.6257 12.6441 5.77047C12.8294 5.83478 12.988 5.87332 13.1046 5.89612L13.5459 5.45482C14.3745 4.62628 14.3745 3.28295 13.5459 2.45441C12.7174 1.62587 11.3741 1.62587 10.5455 2.45441L10.1042 2.8957Z" fill="#1A1B1D"/>
  </g>
  <defs>
    <clipPath id="clip0_2440_10145">
      <rect width="16" height="16" fill="white"/>
    </clipPath>
  </defs>
</svg>