<svg xmlns="http://www.w3.org/2000/svg" width="16" height="16" viewBox="0 0 16 16" fill="none">
  <g clip-path="url(#clip0_3378_1416)">
    <path d="M6.00065 11.5002C5.72451 11.5002 5.50065 11.724 5.50065 12.0002C5.50065 12.2763 5.72451 12.5002 6.00065 12.5002H10.0007C10.2768 12.5002 10.5007 12.2763 10.5007 12.0002C10.5007 11.724 10.2768 11.5002 10.0007 11.5002H6.00065Z" fill="#1A1B1D"/>
    <path fill-rule="evenodd" clip-rule="evenodd" d="M8.00065 0.833496C7.52857 0.833496 7.09967 0.968709 6.63435 1.19499C6.18455 1.41373 5.66493 1.73622 5.01589 2.13904L3.63817 2.99409C3.02404 3.37524 2.53228 3.68043 2.15325 3.9707C1.76075 4.27129 1.45928 4.57742 1.24152 4.97525C1.02422 5.37225 0.926363 5.79466 0.879444 6.29397C0.833975 6.77786 0.833979 7.36957 0.833985 8.11165V9.18673C0.833975 10.456 0.833968 11.4579 0.935787 12.2412C1.04023 13.0448 1.25969 13.6935 1.75556 14.2065C2.25371 14.7217 2.88762 14.9519 3.67239 15.0611C4.43298 15.1669 5.40436 15.1668 6.62855 15.1668H9.37271C10.5969 15.1668 11.5683 15.1669 12.3289 15.0611C13.1137 14.9519 13.7476 14.7217 14.2457 14.2065C14.7416 13.6935 14.9611 13.0448 15.0655 12.2412C15.1673 11.4579 15.1673 10.456 15.1673 9.18674V8.11164C15.1673 7.36959 15.1673 6.77784 15.1219 6.29397C15.0749 5.79466 14.9771 5.37224 14.7598 4.97525C14.542 4.57742 14.2406 4.27129 13.8481 3.9707C13.469 3.68043 12.9773 3.37524 12.3631 2.99411L10.9854 2.13904C10.3364 1.73622 9.81675 1.41372 9.36695 1.19499C8.90163 0.968709 8.47273 0.833496 8.00065 0.833496ZM5.52034 3.00291C6.19751 2.58263 6.67365 2.28785 7.07168 2.09429C7.45947 1.90571 7.73411 1.8335 8.00065 1.8335C8.2672 1.8335 8.54183 1.90571 8.92962 2.09429C9.32765 2.28785 9.80379 2.58263 10.481 3.00291L11.8143 3.83041C12.4549 4.22796 12.9046 4.50773 13.24 4.76463C13.5664 5.01459 13.7542 5.22087 13.8826 5.4554C14.0114 5.69076 14.0866 5.96593 14.1262 6.38752C14.1668 6.81922 14.1673 7.36404 14.1673 8.13611V9.15013C14.1673 10.4641 14.1663 11.4009 14.0739 12.1123C13.983 12.811 13.812 13.2164 13.5268 13.5114C13.2439 13.804 12.8587 13.9778 12.1912 14.0706C11.5074 14.1657 10.6057 14.1668 9.33398 14.1668H6.66732C5.39563 14.1668 4.49387 14.1657 3.81013 14.0706C3.14256 13.9778 2.75741 13.804 2.47451 13.5114C2.18933 13.2164 2.01826 12.811 1.92744 12.1123C1.83498 11.4009 1.83398 10.4641 1.83398 9.15013V8.13611C1.83398 7.36404 1.83449 6.81922 1.87506 6.38752C1.91467 5.96593 1.98988 5.69076 2.11871 5.4554C2.24709 5.22087 2.43487 5.01459 2.76126 4.76463C3.09672 4.50773 3.54645 4.22796 4.187 3.83041L5.52034 3.00291Z" fill="#1A1B1D"/>
  </g>
  <defs>
    <clipPath id="clip0_3378_1416">
      <rect width="16" height="16" fill="white"/>
    </clipPath>
  </defs>
</svg>