<svg xmlns="http://www.w3.org/2000/svg" xmlns:xlink="http://www.w3.org/1999/xlink" viewBox="0 0 202 31"><path d="M 70.114 14.409 C 70.035 18.412 68.06 21.568 64.734 22.929 L 67.022 25.418 C 67.218 25.618 67.33 25.884 67.333 26.162 C 67.334 26.308 67.306 26.451 67.25 26.586 C 67.194 26.72 67.112 26.842 67.008 26.944 C 66.904 27.047 66.781 27.128 66.645 27.183 C 66.509 27.238 66.364 27.266 66.217 27.265 C 66.055 27.265 65.896 27.227 65.752 27.156 C 65.607 27.084 65.481 26.981 65.384 26.854 L 62.551 23.524 C 62.036 23.598 61.515 23.632 60.993 23.626 C 55.433 23.626 51.976 19.778 51.875 14.421 C 51.978 9.058 55.443 5.216 60.993 5.216 C 66.544 5.216 70.009 9.066 70.112 14.421 Z M 60.807 21.38 C 65.059 21.38 67.507 18.32 67.507 14.392 C 67.507 10.463 65.059 7.403 60.807 7.403 C 56.555 7.403 54.117 10.465 54.117 14.392 C 54.117 18.318 56.539 21.38 60.817 21.38 Z M 78.513 23.587 C 75.539 23.587 73.837 21.28 73.837 18.506 L 73.837 11.144 C 73.842 10.834 73.971 10.538 74.196 10.322 C 74.421 10.105 74.724 9.986 75.038 9.989 C 75.193 9.988 75.346 10.018 75.489 10.077 C 75.632 10.135 75.762 10.221 75.871 10.33 C 75.98 10.438 76.067 10.567 76.126 10.708 C 76.184 10.85 76.214 11.001 76.213 11.154 L 76.213 18.248 C 76.213 20.207 77.05 21.409 79.088 21.409 C 80.967 21.409 82.327 20.216 83.371 18.922 L 83.371 11.144 C 83.377 10.834 83.506 10.538 83.731 10.322 C 83.956 10.105 84.259 9.986 84.573 9.989 C 84.727 9.988 84.881 10.018 85.024 10.076 C 85.167 10.135 85.297 10.221 85.406 10.329 C 85.516 10.437 85.602 10.566 85.661 10.708 C 85.72 10.849 85.749 11.001 85.748 11.154 L 85.748 22.275 C 85.751 22.429 85.722 22.583 85.664 22.727 C 85.606 22.87 85.52 23.001 85.411 23.112 C 85.302 23.223 85.172 23.311 85.028 23.372 C 84.884 23.433 84.729 23.466 84.573 23.467 C 84.414 23.467 84.258 23.437 84.112 23.377 C 83.965 23.317 83.833 23.229 83.721 23.118 C 83.609 23.007 83.521 22.875 83.461 22.731 C 83.401 22.586 83.371 22.431 83.371 22.275 L 83.371 21.211 C 82.273 22.404 80.838 23.597 78.513 23.597 Z M 91.32 10.345 C 91.473 10.346 91.625 10.378 91.765 10.438 C 91.905 10.498 92.032 10.586 92.137 10.696 C 92.242 10.805 92.324 10.935 92.378 11.077 C 92.431 11.218 92.455 11.369 92.448 11.52 L 92.448 22.445 C 92.448 22.738 92.331 23.018 92.121 23.225 C 91.912 23.432 91.628 23.548 91.332 23.548 C 91.036 23.548 90.752 23.432 90.543 23.225 C 90.334 23.018 90.216 22.738 90.216 22.445 L 90.216 11.516 C 90.209 11.367 90.232 11.218 90.283 11.078 C 90.335 10.937 90.415 10.808 90.518 10.699 C 90.621 10.589 90.745 10.501 90.882 10.44 C 91.02 10.379 91.169 10.345 91.32 10.341 Z M 92.821 6.072 L 92.821 6.169 C 92.821 6.849 92.187 7.407 91.416 7.407 L 91.249 7.407 C 90.478 7.407 89.844 6.849 89.844 6.169 L 89.844 6.072 C 89.844 5.392 90.478 4.834 91.249 4.834 L 91.416 4.834 C 92.187 4.834 92.821 5.392 92.821 6.072 Z M 107.109 20.432 C 107.648 20.432 108.085 20.972 108.085 21.46 C 108.082 21.64 108.034 21.817 107.944 21.974 C 107.855 22.132 107.726 22.264 107.571 22.359 C 106.339 23.186 104.879 23.616 103.39 23.591 C 99.749 23.591 96.544 21.074 96.544 16.787 C 96.544 12.5 99.749 9.989 103.39 9.989 C 104.879 9.964 106.339 10.394 107.571 11.221 C 107.726 11.316 107.855 11.448 107.944 11.605 C 108.034 11.762 108.082 11.939 108.085 12.12 C 108.085 12.607 107.648 13.146 107.109 13.146 C 106.91 13.152 106.714 13.099 106.546 12.993 C 105.648 12.531 104.931 12.171 103.597 12.171 C 100.623 12.171 98.877 14.045 98.877 16.793 C 98.877 19.541 100.621 21.415 103.597 21.415 C 104.931 21.415 105.648 21.055 106.546 20.592 C 106.714 20.486 106.91 20.432 107.109 20.438 Z M 122.716 21.756 C 122.877 21.954 122.968 22.199 122.975 22.453 C 122.975 23.152 122.484 23.591 121.786 23.591 C 121.6 23.582 121.42 23.533 121.254 23.448 C 121.09 23.364 120.946 23.244 120.833 23.099 L 116.398 17.039 L 114.154 19.09 L 114.154 22.42 C 114.151 22.729 114.025 23.025 113.802 23.243 C 113.579 23.461 113.279 23.583 112.965 23.583 C 112.811 23.583 112.659 23.552 112.518 23.493 C 112.376 23.434 112.247 23.348 112.14 23.24 C 112.032 23.132 111.947 23.004 111.889 22.863 C 111.832 22.722 111.803 22.572 111.805 22.42 L 111.805 5.65 C 111.802 5.341 111.922 5.043 112.138 4.821 C 112.355 4.598 112.652 4.469 112.965 4.462 C 113.281 4.467 113.582 4.594 113.805 4.816 C 114.027 5.039 114.152 5.338 114.154 5.65 L 114.154 16.227 L 120.3 10.547 C 120.506 10.343 120.783 10.223 121.075 10.21 C 121.951 10.21 122.208 10.831 122.208 11.348 C 122.199 11.516 122.155 11.68 122.079 11.831 C 122.004 11.982 121.898 12.117 121.77 12.227 L 118.056 15.557 L 122.723 21.76 Z M 140.172 20.056 C 140.31 20.048 140.449 20.07 140.577 20.119 C 140.707 20.168 140.825 20.243 140.923 20.339 C 141.022 20.436 141.098 20.551 141.148 20.679 C 141.198 20.807 141.22 20.943 141.215 21.08 C 141.219 21.272 141.168 21.461 141.066 21.625 C 140.964 21.789 140.817 21.92 140.642 22.002 C 139.026 22.899 137.254 23.591 134.695 23.591 C 129.509 23.591 125.576 20.107 125.576 14.395 C 125.576 8.684 129.511 5.2 134.695 5.2 C 137.248 5.2 139.02 5.891 140.642 6.788 C 140.817 6.871 140.964 7.002 141.066 7.166 C 141.167 7.33 141.219 7.519 141.215 7.711 C 141.22 7.848 141.198 7.984 141.148 8.112 C 141.098 8.239 141.022 8.355 140.923 8.452 C 140.825 8.548 140.707 8.623 140.577 8.672 C 140.449 8.721 140.31 8.742 140.172 8.735 C 140.01 8.736 139.85 8.701 139.704 8.633 C 138.249 7.823 136.604 7.408 134.934 7.429 C 130.322 7.429 127.951 10.451 127.951 14.395 C 127.951 18.34 130.33 21.362 134.934 21.362 C 136.604 21.384 138.249 20.969 139.704 20.16 C 139.85 20.09 140.01 20.055 140.172 20.056 Z M 151.802 10.022 C 154.775 10.022 156.478 12.321 156.478 15.087 L 156.478 22.427 C 156.477 22.582 156.444 22.734 156.383 22.876 C 156.322 23.018 156.233 23.147 156.121 23.255 C 156.01 23.363 155.878 23.448 155.733 23.506 C 155.588 23.564 155.432 23.592 155.276 23.591 C 155.122 23.591 154.969 23.562 154.826 23.503 C 154.683 23.445 154.553 23.359 154.444 23.251 C 154.335 23.143 154.247 23.014 154.189 22.873 C 154.13 22.732 154.101 22.58 154.101 22.427 L 154.101 15.341 C 154.101 13.383 153.265 12.188 151.227 12.188 C 149.346 12.188 147.988 13.377 146.943 14.67 L 146.943 22.424 C 146.941 22.578 146.909 22.73 146.848 22.872 C 146.787 23.014 146.698 23.143 146.586 23.251 C 146.474 23.359 146.342 23.444 146.198 23.502 C 146.053 23.56 145.898 23.588 145.742 23.587 C 145.587 23.587 145.434 23.558 145.291 23.499 C 145.148 23.441 145.018 23.355 144.909 23.247 C 144.799 23.139 144.713 23.011 144.654 22.869 C 144.595 22.728 144.565 22.576 144.566 22.424 L 144.566 5.65 C 144.563 5.496 144.591 5.342 144.648 5.198 C 144.706 5.054 144.791 4.923 144.901 4.812 C 145.011 4.701 145.142 4.613 145.286 4.553 C 145.43 4.493 145.585 4.462 145.742 4.462 C 145.9 4.461 146.056 4.492 146.203 4.552 C 146.348 4.611 146.481 4.699 146.593 4.809 C 146.704 4.92 146.793 5.051 146.852 5.195 C 146.913 5.34 146.943 5.494 146.943 5.65 L 146.943 12.396 C 148.04 11.207 149.477 10.018 151.802 10.018 Z M 171.018 20.51 C 171.152 20.508 171.285 20.533 171.411 20.582 C 171.535 20.632 171.648 20.705 171.744 20.798 C 171.84 20.891 171.916 21.002 171.967 21.125 C 172.019 21.247 172.047 21.378 172.047 21.511 C 172.047 21.922 171.738 22.255 171.378 22.461 C 170.245 23.103 169.111 23.591 166.871 23.591 C 162.672 23.591 160.201 21.1 160.201 16.787 C 160.201 13.318 162.08 9.989 166.356 9.989 C 170.32 9.989 172.485 13.044 172.485 16.452 C 172.49 16.607 172.463 16.761 172.404 16.905 C 172.346 17.048 172.259 17.179 172.147 17.287 C 172.035 17.396 171.902 17.48 171.755 17.536 C 171.608 17.591 171.452 17.615 171.295 17.607 L 162.573 17.607 C 162.831 19.919 164.3 21.409 167.081 21.409 C 168.291 21.446 169.489 21.172 170.558 20.612 C 170.701 20.539 170.861 20.504 171.021 20.51 Z M 166.33 12.184 C 164.633 12.184 162.593 13.244 162.435 15.862 L 170.251 15.862 C 170.092 13.244 168.025 12.184 166.33 12.184 Z M 186.03 20.428 C 186.567 20.428 187.003 20.968 187.003 21.456 C 187.002 21.637 186.953 21.814 186.863 21.971 C 186.774 22.128 186.645 22.26 186.49 22.355 C 185.259 23.182 183.799 23.613 182.311 23.587 C 178.669 23.587 175.464 21.07 175.464 16.783 C 175.464 12.496 178.669 9.989 182.311 9.989 C 183.799 9.963 185.259 10.393 186.49 11.221 C 186.645 11.315 186.774 11.447 186.863 11.605 C 186.953 11.762 187.002 11.939 187.003 12.12 C 187.003 12.607 186.567 13.146 186.03 13.146 C 185.83 13.152 185.634 13.099 185.465 12.993 C 184.567 12.531 183.849 12.171 182.515 12.171 C 179.542 12.171 177.798 14.045 177.798 16.793 C 177.798 19.541 179.542 21.415 182.515 21.415 C 183.849 21.415 184.567 21.055 185.465 20.592 C 185.633 20.486 185.83 20.432 186.03 20.438 Z M 201.636 21.752 C 201.796 21.951 201.887 22.195 201.894 22.449 C 201.894 23.148 201.405 23.587 200.705 23.587 C 200.519 23.578 200.338 23.529 200.173 23.445 C 200.009 23.36 199.865 23.24 199.752 23.095 L 195.317 17.039 L 193.075 19.09 L 193.075 22.42 C 193.072 22.729 192.945 23.025 192.723 23.243 C 192.5 23.461 192.199 23.583 191.886 23.583 C 191.731 23.583 191.58 23.552 191.438 23.494 C 191.296 23.435 191.167 23.349 191.059 23.241 C 190.951 23.133 190.866 23.004 190.808 22.863 C 190.75 22.722 190.721 22.572 190.724 22.42 L 190.724 5.65 C 190.72 5.341 190.84 5.043 191.057 4.82 C 191.275 4.598 191.573 4.469 191.886 4.462 C 192.202 4.466 192.504 4.593 192.726 4.816 C 192.949 5.038 193.074 5.338 193.075 5.65 L 193.075 16.227 L 199.219 10.547 C 199.426 10.343 199.702 10.223 199.993 10.21 C 200.869 10.21 201.129 10.831 201.129 11.348 C 201.119 11.516 201.075 11.681 200.999 11.832 C 200.923 11.983 200.818 12.117 200.688 12.227 L 196.975 15.557 L 201.644 21.76 Z" fill="rgb(255,255,255)"></path><path d="M 31.717 15.451 C 31.717 6.918 24.614 0 15.858 0 C 7.103 0 0 6.918 0 15.451 C 0 23.985 7.099 30.904 15.858 30.904 C 16.352 30.904 16.826 30.71 17.175 30.365 C 17.524 30.02 17.721 29.552 17.721 29.064 C 17.721 28.576 17.524 28.108 17.175 27.763 C 16.826 27.418 16.352 27.224 15.858 27.224 C 9.184 27.224 3.766 21.952 3.766 15.445 C 3.766 8.939 9.178 3.668 15.858 3.668 C 22.539 3.668 27.95 8.941 27.95 15.445 C 27.972 15.924 28.181 16.376 28.531 16.707 C 28.882 17.038 29.348 17.222 29.833 17.222 C 30.318 17.222 30.785 17.038 31.135 16.707 C 31.486 16.376 31.694 15.924 31.717 15.445 Z" fill="rgb(245,77,7)"></path><path d="M 24.766 22.586 L 28.56 26.307 L 36.93 18.107 C 37.144 17.9 37.408 17.75 37.697 17.67 C 37.985 17.59 38.29 17.584 38.582 17.651 C 38.874 17.719 39.144 17.858 39.367 18.055 C 39.591 18.253 39.76 18.503 39.859 18.783 L 39.875 18.828 C 39.979 19.133 39.994 19.461 39.918 19.775 C 39.842 20.088 39.679 20.374 39.447 20.6 L 29.918 29.927 C 29.68 30.163 29.377 30.326 29.048 30.397 C 28.739 30.492 28.41 30.502 28.096 30.427 C 27.782 30.351 27.494 30.193 27.264 29.968 L 22.241 25.042 C 22.027 24.834 21.872 24.575 21.789 24.291 C 21.706 24.006 21.699 23.705 21.769 23.417 C 21.838 23.129 21.981 22.863 22.185 22.645 C 22.388 22.428 22.645 22.266 22.931 22.175 L 22.954 22.175 C 23.265 22.072 23.599 22.056 23.919 22.129 C 24.238 22.202 24.532 22.36 24.766 22.586 Z" fill="rgb(245,77,7)"></path></svg>