<svg xmlns="http://www.w3.org/2000/svg" xmlns:xlink="http://www.w3.org/1999/xlink" width="1080" zoomAndPan="magnify" viewBox="0 0 810 809.999993" height="1080" preserveAspectRatio="xMidYMid meet" version="1.0"><defs><clipPath id="c92a9859e1"><path d="M 225 313.957031 L 319 313.957031 L 319 404.707031 L 225 404.707031 Z M 225 313.957031 " clip-rule="nonzero"/></clipPath></defs><g clip-path="url(#c92a9859e1)"><path fill="#f54d07" d="M 318.464844 359.328125 C 318.464844 334.273438 297.605469 313.957031 271.894531 313.957031 C 246.183594 313.957031 225.328125 334.273438 225.328125 359.328125 C 225.328125 384.390625 246.171875 404.707031 271.894531 404.707031 C 273.34375 404.707031 274.734375 404.136719 275.761719 403.125 C 276.785156 402.109375 277.363281 400.738281 277.363281 399.304688 C 277.363281 397.871094 276.785156 396.496094 275.761719 395.484375 C 274.734375 394.46875 273.34375 393.902344 271.894531 393.902344 C 252.296875 393.902344 236.386719 378.417969 236.386719 359.3125 C 236.386719 340.207031 252.277344 324.730469 271.894531 324.730469 C 291.511719 324.730469 307.402344 340.210938 307.402344 359.3125 C 307.464844 360.71875 308.078125 362.046875 309.109375 363.015625 C 310.136719 363.988281 311.507812 364.53125 312.929688 364.53125 C 314.355469 364.53125 315.726562 363.988281 316.753906 363.015625 C 317.785156 362.046875 318.394531 360.71875 318.464844 359.3125 Z M 318.464844 359.328125 " fill-opacity="1" fill-rule="nonzero"/></g><path fill="#f54d07" d="M 298.050781 380.28125 L 309.191406 391.207031 L 333.769531 367.128906 C 334.398438 366.519531 335.175781 366.082031 336.023438 365.84375 C 336.871094 365.609375 337.765625 365.59375 338.621094 365.789062 C 339.480469 365.988281 340.273438 366.398438 340.925781 366.976562 C 341.585938 367.558594 342.082031 368.292969 342.371094 369.113281 L 342.417969 369.246094 C 342.722656 370.140625 342.769531 371.105469 342.546875 372.027344 C 342.320312 372.945312 341.84375 373.785156 341.164062 374.449219 L 313.179688 401.839844 C 312.480469 402.53125 311.59375 403.007812 310.625 403.21875 C 309.71875 403.496094 308.753906 403.527344 307.832031 403.304688 C 306.90625 403.082031 306.0625 402.617188 305.386719 401.957031 L 290.636719 387.492188 C 290.007812 386.882812 289.554688 386.121094 289.308594 385.289062 C 289.066406 384.449219 289.046875 383.566406 289.25 382.722656 C 289.453125 381.875 289.875 381.09375 290.472656 380.453125 C 291.070312 379.816406 291.824219 379.339844 292.664062 379.074219 L 292.730469 379.074219 C 293.644531 378.773438 294.625 378.726562 295.566406 378.9375 C 296.5 379.152344 297.363281 379.617188 298.050781 380.28125 Z M 298.050781 380.28125 " fill-opacity="1" fill-rule="nonzero"/></svg>