<svg xmlns="http://www.w3.org/2000/svg" xmlns:xlink="http://www.w3.org/1999/xlink" width="500" zoomAndPan="magnify" viewBox="0 0 375 374.999991" height="500" preserveAspectRatio="xMidYMid meet" version="1.0"><defs><clipPath id="cf7a4f94e0"><path d="M 118 118.929688 L 244 118.929688 L 244 241 L 118 241 Z M 118 118.929688 " clip-rule="nonzero"/></clipPath></defs><g clip-path="url(#cf7a4f94e0)"><path fill="#ffffff" d="M 243.191406 179.730469 C 243.191406 146.152344 215.242188 118.929688 180.785156 118.929688 C 146.332031 118.929688 118.378906 146.152344 118.378906 179.730469 C 118.378906 213.316406 146.316406 240.542969 180.785156 240.542969 C 182.726562 240.542969 184.59375 239.777344 185.964844 238.421875 C 187.339844 237.0625 188.117188 235.222656 188.117188 233.300781 C 188.117188 231.382812 187.339844 229.539062 185.964844 228.183594 C 184.59375 226.824219 182.726562 226.0625 180.785156 226.0625 C 154.519531 226.0625 133.199219 205.3125 133.199219 179.707031 C 133.199219 154.105469 154.496094 133.363281 180.785156 133.363281 C 207.074219 133.363281 228.367188 154.113281 228.367188 179.707031 C 228.457031 181.59375 229.277344 183.371094 230.65625 184.675781 C 232.035156 185.976562 233.871094 186.699219 235.777344 186.699219 C 237.6875 186.699219 239.523438 185.976562 240.902344 184.675781 C 242.285156 183.371094 243.101562 181.59375 243.191406 179.707031 Z M 243.191406 179.730469 " fill-opacity="1" fill-rule="nonzero"/></g><path fill="#ffffff" d="M 215.839844 207.808594 L 230.769531 222.453125 L 263.707031 190.183594 C 264.550781 189.367188 265.589844 188.777344 266.726562 188.464844 C 267.859375 188.148438 269.058594 188.125 270.207031 188.390625 C 271.355469 188.65625 272.417969 189.203125 273.296875 189.980469 C 274.179688 190.757812 274.84375 191.742188 275.234375 192.84375 L 275.296875 193.019531 C 275.707031 194.222656 275.765625 195.511719 275.464844 196.746094 C 275.167969 197.980469 274.523438 199.105469 273.613281 199.992188 L 236.113281 236.699219 C 235.175781 237.625 233.984375 238.269531 232.691406 238.546875 C 231.472656 238.921875 230.179688 238.960938 228.941406 238.664062 C 227.707031 238.367188 226.574219 237.746094 225.667969 236.859375 L 205.902344 217.472656 C 205.058594 216.65625 204.449219 215.636719 204.125 214.519531 C 203.796875 213.398438 203.769531 212.210938 204.046875 211.078125 C 204.316406 209.945312 204.878906 208.898438 205.683594 208.042969 C 206.480469 207.1875 207.492188 206.550781 208.617188 206.191406 L 208.707031 206.191406 C 209.933594 205.785156 211.246094 205.722656 212.507812 206.011719 C 213.761719 206.296875 214.917969 206.917969 215.839844 207.808594 Z M 215.839844 207.808594 " fill-opacity="1" fill-rule="nonzero"/></svg>