<svg xmlns="http://www.w3.org/2000/svg" xmlns:xlink="http://www.w3.org/1999/xlink" width="1080" zoomAndPan="magnify" viewBox="0 0 810 809.999993" height="1080" preserveAspectRatio="xMidYMid meet" version="1.0"><defs><clipPath id="ecd68d5396"><path d="M 224 335.691406 L 296 335.691406 L 296 404.691406 L 224 404.691406 Z M 224 335.691406 " clip-rule="nonzero"/></clipPath></defs><g clip-path="url(#ecd68d5396)"><path fill="#f54d07" d="M 295.863281 370.234375 C 295.863281 351.15625 279.984375 335.691406 260.410156 335.691406 C 240.835938 335.691406 224.957031 351.15625 224.957031 370.234375 C 224.957031 389.3125 240.828125 404.78125 260.410156 404.78125 C 261.515625 404.78125 262.574219 404.347656 263.355469 403.578125 C 264.132812 402.804688 264.574219 401.757812 264.574219 400.667969 C 264.574219 399.578125 264.132812 398.53125 263.355469 397.757812 C 262.574219 396.988281 261.515625 396.554688 260.410156 396.554688 C 245.488281 396.554688 233.375 384.769531 233.375 370.222656 C 233.375 355.675781 245.476562 343.890625 260.410156 343.890625 C 275.347656 343.890625 287.441406 355.679688 287.441406 370.222656 C 287.492188 371.292969 287.960938 372.300781 288.742188 373.042969 C 289.527344 373.78125 290.566406 374.195312 291.652344 374.195312 C 292.738281 374.195312 293.78125 373.78125 294.5625 373.042969 C 295.347656 372.300781 295.8125 371.292969 295.863281 370.222656 Z M 295.863281 370.234375 " fill-opacity="1" fill-rule="nonzero"/></g><path fill="#f54d07" d="M 280.324219 386.1875 L 288.804688 394.503906 L 307.519531 376.171875 C 307.996094 375.710938 308.585938 375.375 309.234375 375.195312 C 309.878906 375.015625 310.558594 375.003906 311.210938 375.152344 C 311.863281 375.304688 312.46875 375.617188 312.96875 376.054688 C 313.46875 376.5 313.84375 377.058594 314.066406 377.683594 L 314.101562 377.785156 C 314.335938 378.464844 314.367188 379.199219 314.199219 379.902344 C 314.027344 380.601562 313.664062 381.242188 313.144531 381.746094 L 291.84375 402.597656 C 291.308594 403.125 290.632812 403.488281 289.898438 403.648438 C 289.207031 403.859375 288.472656 403.882812 287.769531 403.714844 C 287.066406 403.546875 286.421875 403.191406 285.910156 402.6875 L 274.679688 391.675781 C 274.199219 391.210938 273.855469 390.632812 273.667969 389.996094 C 273.484375 389.359375 273.46875 388.6875 273.625 388.042969 C 273.777344 387.398438 274.097656 386.804688 274.554688 386.316406 C 275.007812 385.832031 275.582031 385.46875 276.222656 385.265625 L 276.273438 385.265625 C 276.96875 385.035156 277.714844 385 278.429688 385.164062 C 279.144531 385.328125 279.800781 385.679688 280.324219 386.1875 Z M 280.324219 386.1875 " fill-opacity="1" fill-rule="nonzero"/></svg>