<svg xmlns="http://www.w3.org/2000/svg" xmlns:xlink="http://www.w3.org/1999/xlink" width="1080" zoomAndPan="magnify" viewBox="0 0 810 809.999993" height="1080" preserveAspectRatio="xMidYMid meet" version="1.0"><defs><clipPath id="4630cfe6b9"><path d="M 243 355.515625 L 295 355.515625 L 295 405 L 243 405 Z M 243 355.515625 " clip-rule="nonzero"/></clipPath></defs><path fill="#f54d07" d="M 355.707031 378.511719 C 355.578125 384.902344 352.425781 389.9375 347.117188 392.113281 L 350.769531 396.082031 C 351.082031 396.402344 351.261719 396.828125 351.265625 397.269531 C 351.269531 397.503906 351.222656 397.734375 351.132812 397.949219 C 351.046875 398.160156 350.914062 398.355469 350.75 398.519531 C 350.582031 398.683594 350.386719 398.8125 350.167969 398.902344 C 349.953125 398.988281 349.71875 399.035156 349.484375 399.03125 C 349.226562 399.03125 348.972656 398.972656 348.742188 398.859375 C 348.511719 398.742188 348.3125 398.578125 348.15625 398.375 L 343.632812 393.0625 C 342.8125 393.179688 341.980469 393.234375 341.148438 393.222656 C 332.273438 393.222656 326.757812 387.082031 326.59375 378.53125 C 326.761719 369.972656 332.289062 363.839844 341.148438 363.839844 C 350.007812 363.839844 355.539062 369.984375 355.703125 378.53125 Z M 340.851562 389.640625 C 347.636719 389.640625 351.542969 384.753906 351.542969 378.484375 C 351.542969 372.214844 347.636719 367.332031 340.851562 367.332031 C 334.066406 367.332031 330.175781 372.21875 330.175781 378.484375 C 330.175781 384.753906 334.039062 389.640625 340.867188 389.640625 Z M 369.109375 393.160156 C 364.363281 393.160156 361.648438 389.480469 361.648438 385.050781 L 361.648438 373.300781 C 361.65625 372.808594 361.859375 372.335938 362.21875 371.992188 C 362.578125 371.644531 363.0625 371.453125 363.5625 371.460938 C 363.8125 371.457031 364.054688 371.503906 364.285156 371.597656 C 364.511719 371.691406 364.71875 371.828125 364.894531 372.003906 C 365.066406 372.175781 365.207031 372.382812 365.300781 372.605469 C 365.394531 372.832031 365.441406 373.074219 365.441406 373.320312 L 365.441406 384.640625 C 365.441406 387.765625 366.773438 389.683594 370.027344 389.683594 C 373.027344 389.683594 375.199219 387.78125 376.863281 385.714844 L 376.863281 373.300781 C 376.875 372.808594 377.078125 372.335938 377.4375 371.992188 C 377.796875 371.644531 378.28125 371.453125 378.78125 371.460938 C 379.027344 371.457031 379.273438 371.503906 379.503906 371.597656 C 379.730469 371.691406 379.9375 371.828125 380.113281 372 C 380.289062 372.175781 380.425781 372.378906 380.519531 372.605469 C 380.613281 372.832031 380.660156 373.074219 380.65625 373.320312 L 380.65625 391.066406 C 380.664062 391.3125 380.617188 391.558594 380.523438 391.789062 C 380.429688 392.015625 380.292969 392.226562 380.121094 392.402344 C 379.945312 392.582031 379.738281 392.722656 379.507812 392.820312 C 379.277344 392.914062 379.03125 392.96875 378.78125 392.96875 C 378.527344 392.96875 378.28125 392.921875 378.046875 392.828125 C 377.8125 392.730469 377.601562 392.589844 377.421875 392.414062 C 377.242188 392.234375 377.101562 392.023438 377.007812 391.796875 C 376.910156 391.5625 376.863281 391.316406 376.863281 391.066406 L 376.863281 389.371094 C 375.113281 391.273438 372.820312 393.175781 369.109375 393.175781 Z M 389.550781 372.027344 C 389.792969 372.027344 390.039062 372.078125 390.261719 372.175781 C 390.484375 372.269531 390.6875 372.410156 390.855469 372.585938 C 391.023438 372.761719 391.152344 372.96875 391.238281 373.195312 C 391.324219 373.421875 391.363281 373.660156 391.351562 373.902344 L 391.351562 391.339844 C 391.351562 391.804688 391.164062 392.253906 390.828125 392.582031 C 390.496094 392.914062 390.042969 393.097656 389.570312 393.097656 C 389.097656 393.097656 388.644531 392.914062 388.308594 392.582031 C 387.976562 392.253906 387.789062 391.804688 387.789062 391.339844 L 387.789062 373.894531 C 387.777344 373.660156 387.8125 373.421875 387.894531 373.195312 C 387.976562 372.972656 388.105469 372.765625 388.269531 372.59375 C 388.433594 372.417969 388.632812 372.277344 388.851562 372.179688 C 389.070312 372.082031 389.308594 372.027344 389.550781 372.019531 Z M 391.945312 365.207031 L 391.945312 365.363281 C 391.945312 366.449219 390.933594 367.339844 389.703125 367.339844 L 389.4375 367.339844 C 388.207031 367.339844 387.195312 366.449219 387.195312 365.363281 L 387.195312 365.207031 C 387.195312 364.121094 388.207031 363.230469 389.4375 363.230469 L 389.703125 363.230469 C 390.933594 363.230469 391.945312 364.121094 391.945312 365.207031 Z M 414.75 388.125 C 415.609375 388.125 416.308594 388.988281 416.308594 389.765625 C 416.304688 390.054688 416.226562 390.335938 416.082031 390.585938 C 415.941406 390.839844 415.734375 391.050781 415.488281 391.203125 C 413.519531 392.523438 411.191406 393.207031 408.816406 393.167969 C 403.003906 393.167969 397.886719 389.152344 397.886719 382.308594 C 397.886719 375.464844 403.003906 371.460938 408.816406 371.460938 C 411.191406 371.417969 413.519531 372.105469 415.488281 373.425781 C 415.734375 373.578125 415.941406 373.789062 416.082031 374.039062 C 416.226562 374.289062 416.304688 374.570312 416.308594 374.859375 C 416.308594 375.636719 415.609375 376.496094 414.75 376.496094 C 414.433594 376.507812 414.121094 376.421875 413.851562 376.253906 C 412.417969 375.515625 411.273438 374.941406 409.144531 374.941406 C 404.398438 374.941406 401.613281 377.933594 401.613281 382.316406 C 401.613281 386.703125 404.394531 389.695312 409.144531 389.695312 C 411.273438 389.695312 412.417969 389.121094 413.851562 388.382812 C 414.121094 388.210938 414.433594 388.125 414.75 388.136719 Z M 439.660156 390.238281 C 439.917969 390.554688 440.0625 390.945312 440.074219 391.351562 C 440.074219 392.46875 439.289062 393.167969 438.175781 393.167969 C 437.878906 393.152344 437.589844 393.074219 437.324219 392.941406 C 437.0625 392.804688 436.835938 392.613281 436.652344 392.382812 L 429.574219 382.710938 L 425.992188 385.984375 L 425.992188 391.300781 C 425.988281 391.792969 425.789062 392.265625 425.433594 392.613281 C 425.078125 392.960938 424.597656 393.15625 424.097656 393.15625 C 423.851562 393.15625 423.609375 393.105469 423.382812 393.011719 C 423.15625 392.917969 422.949219 392.78125 422.78125 392.609375 C 422.605469 392.433594 422.472656 392.230469 422.378906 392.007812 C 422.289062 391.78125 422.242188 391.542969 422.246094 391.300781 L 422.246094 364.535156 C 422.238281 364.039062 422.433594 363.566406 422.777344 363.210938 C 423.121094 362.855469 423.597656 362.648438 424.097656 362.636719 C 424.601562 362.644531 425.082031 362.847656 425.4375 363.203125 C 425.792969 363.558594 425.992188 364.035156 425.992188 364.535156 L 425.992188 381.414062 L 435.804688 372.347656 C 436.132812 372.023438 436.574219 371.832031 437.039062 371.8125 C 438.4375 371.8125 438.847656 372.804688 438.847656 373.628906 C 438.832031 373.894531 438.765625 374.15625 438.640625 374.398438 C 438.523438 374.640625 438.355469 374.855469 438.148438 375.03125 L 432.222656 380.34375 L 439.671875 390.246094 Z M 467.519531 387.527344 C 467.738281 387.511719 467.960938 387.546875 468.164062 387.625 C 468.375 387.703125 468.5625 387.824219 468.71875 387.976562 C 468.875 388.132812 468.996094 388.316406 469.078125 388.519531 C 469.15625 388.726562 469.191406 388.941406 469.183594 389.160156 C 469.191406 389.46875 469.109375 389.769531 468.945312 390.03125 C 468.785156 390.292969 468.546875 390.5 468.269531 390.632812 C 465.691406 392.0625 462.863281 393.167969 458.777344 393.167969 C 450.5 393.167969 444.222656 387.609375 444.222656 378.492188 C 444.222656 369.375 450.503906 363.816406 458.777344 363.816406 C 462.851562 363.816406 465.679688 364.917969 468.269531 366.351562 C 468.546875 366.484375 468.785156 366.691406 468.945312 366.953125 C 469.105469 367.214844 469.191406 367.515625 469.183594 367.824219 C 469.191406 368.042969 469.15625 368.257812 469.078125 368.464844 C 468.996094 368.664062 468.875 368.851562 468.71875 369.007812 C 468.5625 369.160156 468.375 369.277344 468.164062 369.355469 C 467.960938 369.433594 467.738281 369.46875 467.519531 369.457031 C 467.261719 369.460938 467.003906 369.402344 466.773438 369.292969 C 464.449219 368.003906 461.824219 367.339844 459.160156 367.375 C 451.796875 367.375 448.015625 372.195312 448.015625 378.492188 C 448.015625 384.789062 451.8125 389.609375 459.160156 389.609375 C 461.824219 389.644531 464.449219 388.984375 466.773438 387.691406 C 467.003906 387.582031 467.261719 387.523438 467.519531 387.527344 Z M 486.082031 371.511719 C 490.824219 371.511719 493.542969 375.179688 493.542969 379.59375 L 493.542969 391.308594 C 493.542969 391.558594 493.488281 391.800781 493.390625 392.027344 C 493.292969 392.253906 493.152344 392.460938 492.972656 392.632812 C 492.796875 392.804688 492.585938 392.941406 492.355469 393.03125 C 492.125 393.125 491.875 393.167969 491.625 393.167969 C 491.378906 393.167969 491.136719 393.121094 490.90625 393.027344 C 490.679688 392.933594 490.472656 392.796875 490.296875 392.625 C 490.125 392.453125 489.984375 392.246094 489.890625 392.023438 C 489.796875 391.796875 489.75 391.554688 489.75 391.308594 L 489.75 380 C 489.75 376.875 488.414062 374.96875 485.164062 374.96875 C 482.160156 374.96875 479.992188 376.867188 478.324219 378.929688 L 478.324219 391.304688 C 478.324219 391.550781 478.273438 391.792969 478.175781 392.019531 C 478.078125 392.246094 477.933594 392.453125 477.757812 392.625 C 477.578125 392.796875 477.367188 392.933594 477.136719 393.027344 C 476.90625 393.117188 476.65625 393.164062 476.410156 393.160156 C 476.160156 393.160156 475.917969 393.117188 475.6875 393.019531 C 475.460938 392.929688 475.253906 392.792969 475.078125 392.617188 C 474.902344 392.445312 474.765625 392.242188 474.671875 392.015625 C 474.578125 391.789062 474.53125 391.546875 474.53125 391.304688 L 474.53125 364.535156 C 474.527344 364.289062 474.570312 364.042969 474.664062 363.8125 C 474.753906 363.582031 474.890625 363.375 475.066406 363.195312 C 475.242188 363.019531 475.453125 362.878906 475.679688 362.78125 C 475.910156 362.6875 476.160156 362.636719 476.410156 362.636719 C 476.660156 362.636719 476.910156 362.6875 477.144531 362.78125 C 477.375 362.875 477.589844 363.015625 477.765625 363.191406 C 477.945312 363.367188 478.085938 363.578125 478.179688 363.808594 C 478.277344 364.039062 478.324219 364.285156 478.324219 364.535156 L 478.324219 375.300781 C 480.078125 373.402344 482.371094 371.503906 486.082031 371.503906 Z M 516.75 388.25 C 516.964844 388.246094 517.175781 388.289062 517.378906 388.367188 C 517.574219 388.445312 517.753906 388.5625 517.910156 388.710938 C 518.0625 388.859375 518.183594 389.035156 518.265625 389.230469 C 518.347656 389.425781 518.390625 389.636719 518.390625 389.847656 C 518.390625 390.503906 517.898438 391.035156 517.324219 391.363281 C 515.515625 392.390625 513.707031 393.167969 510.132812 393.167969 C 503.429688 393.167969 499.484375 389.191406 499.484375 382.308594 C 499.484375 376.773438 502.484375 371.460938 509.308594 371.460938 C 515.636719 371.460938 519.089844 376.335938 519.089844 381.773438 C 519.097656 382.019531 519.054688 382.265625 518.960938 382.496094 C 518.871094 382.726562 518.730469 382.933594 518.550781 383.105469 C 518.375 383.28125 518.160156 383.414062 517.925781 383.503906 C 517.691406 383.59375 517.441406 383.628906 517.191406 383.617188 L 503.273438 383.617188 C 503.683594 387.308594 506.027344 389.683594 510.464844 389.683594 C 512.398438 389.746094 514.308594 389.308594 516.015625 388.414062 C 516.242188 388.296875 516.5 388.242188 516.753906 388.25 Z M 509.269531 374.960938 C 506.558594 374.960938 503.304688 376.652344 503.050781 380.832031 L 515.527344 380.832031 C 515.273438 376.652344 511.972656 374.960938 509.269531 374.960938 Z M 540.710938 388.121094 C 541.566406 388.121094 542.261719 388.980469 542.261719 389.761719 C 542.261719 390.050781 542.183594 390.332031 542.039062 390.582031 C 541.898438 390.832031 541.691406 391.042969 541.445312 391.195312 C 539.480469 392.515625 537.148438 393.203125 534.773438 393.160156 C 528.960938 393.160156 523.847656 389.144531 523.847656 382.300781 C 523.847656 375.460938 528.960938 371.460938 534.773438 371.460938 C 537.148438 371.417969 539.480469 372.105469 541.445312 373.425781 C 541.691406 373.574219 541.898438 373.785156 542.039062 374.039062 C 542.183594 374.289062 542.261719 374.570312 542.261719 374.859375 C 542.261719 375.636719 541.566406 376.496094 540.710938 376.496094 C 540.390625 376.507812 540.078125 376.421875 539.808594 376.253906 C 538.375 375.515625 537.226562 374.941406 535.097656 374.941406 C 530.355469 374.941406 527.570312 377.933594 527.570312 382.316406 C 527.570312 386.703125 530.355469 389.695312 535.097656 389.695312 C 537.226562 389.695312 538.375 389.121094 539.808594 388.382812 C 540.074219 388.210938 540.390625 388.125 540.710938 388.136719 Z M 565.617188 390.234375 C 565.871094 390.550781 566.015625 390.941406 566.027344 391.34375 C 566.027344 392.460938 565.25 393.160156 564.132812 393.160156 C 563.835938 393.148438 563.546875 393.070312 563.28125 392.933594 C 563.019531 392.800781 562.789062 392.609375 562.609375 392.375 L 555.53125 382.710938 L 551.953125 385.984375 L 551.953125 391.300781 C 551.949219 391.792969 551.746094 392.265625 551.390625 392.613281 C 551.035156 392.960938 550.554688 393.15625 550.054688 393.15625 C 549.808594 393.15625 549.566406 393.105469 549.339844 393.011719 C 549.113281 392.917969 548.90625 392.78125 548.734375 392.609375 C 548.5625 392.4375 548.425781 392.230469 548.335938 392.007812 C 548.242188 391.78125 548.195312 391.542969 548.199219 391.300781 L 548.199219 364.535156 C 548.195312 364.039062 548.386719 363.566406 548.734375 363.210938 C 549.082031 362.855469 549.554688 362.648438 550.054688 362.636719 C 550.558594 362.644531 551.042969 362.847656 551.394531 363.203125 C 551.753906 363.558594 551.953125 364.035156 551.953125 364.535156 L 551.953125 381.414062 L 561.757812 372.347656 C 562.089844 372.023438 562.53125 371.832031 562.996094 371.8125 C 564.394531 371.8125 564.808594 372.804688 564.808594 373.628906 C 564.792969 373.894531 564.722656 374.160156 564.601562 374.402344 C 564.480469 374.640625 564.3125 374.855469 564.105469 375.03125 L 558.179688 380.34375 L 565.628906 390.246094 Z M 565.617188 390.234375 " fill-opacity="1" fill-rule="nonzero"/><g clip-path="url(#4630cfe6b9)"><path fill="#f54d07" d="M 294.421875 380.175781 C 294.421875 366.558594 283.085938 355.515625 269.113281 355.515625 C 255.136719 355.515625 243.800781 366.558594 243.800781 380.175781 C 243.800781 393.796875 255.132812 404.839844 269.113281 404.839844 C 269.898438 404.839844 270.65625 404.53125 271.214844 403.980469 C 271.769531 403.429688 272.085938 402.683594 272.085938 401.902344 C 272.085938 401.125 271.769531 400.378906 271.214844 399.828125 C 270.65625 399.277344 269.898438 398.964844 269.113281 398.964844 C 258.460938 398.964844 249.8125 390.550781 249.8125 380.167969 C 249.8125 369.78125 258.449219 361.371094 269.113281 361.371094 C 279.773438 361.371094 288.410156 369.785156 288.410156 380.167969 C 288.445312 380.929688 288.78125 381.652344 289.339844 382.179688 C 289.898438 382.710938 290.640625 383.003906 291.417969 383.003906 C 292.191406 383.003906 292.9375 382.710938 293.496094 382.179688 C 294.054688 381.652344 294.386719 380.929688 294.421875 380.167969 Z M 294.421875 380.175781 " fill-opacity="1" fill-rule="nonzero"/></g><path fill="#f54d07" d="M 283.328125 391.5625 L 289.382812 397.503906 L 302.742188 384.414062 C 303.085938 384.085938 303.507812 383.84375 303.96875 383.71875 C 304.425781 383.589844 304.914062 383.582031 305.378906 383.6875 C 305.847656 383.796875 306.277344 384.019531 306.632812 384.332031 C 306.988281 384.648438 307.261719 385.046875 307.417969 385.496094 L 307.445312 385.566406 C 307.609375 386.054688 307.632812 386.578125 307.511719 387.078125 C 307.390625 387.578125 307.128906 388.035156 306.761719 388.394531 L 291.550781 403.28125 C 291.171875 403.65625 290.6875 403.917969 290.164062 404.03125 C 289.671875 404.183594 289.144531 404.199219 288.644531 404.078125 C 288.144531 403.957031 287.683594 403.703125 287.316406 403.347656 L 279.300781 395.484375 C 278.957031 395.152344 278.710938 394.738281 278.578125 394.285156 C 278.445312 393.832031 278.433594 393.351562 278.546875 392.890625 C 278.65625 392.429688 278.882812 392.007812 279.210938 391.660156 C 279.535156 391.3125 279.945312 391.054688 280.402344 390.90625 L 280.4375 390.90625 C 280.933594 390.742188 281.464844 390.71875 281.976562 390.835938 C 282.488281 390.949219 282.957031 391.203125 283.328125 391.5625 Z M 283.328125 391.5625 " fill-opacity="1" fill-rule="nonzero"/></svg>