<svg xmlns="http://www.w3.org/2000/svg" width="16" height="16" viewBox="0 0 16 16" fill="none">
  <g clip-path="url(#clip0_2592_30778)">
    <path d="M7.96234 0.833008H8.03885C9.57777 0.832999 10.7838 0.832993 11.7248 0.959506C12.6879 1.089 13.448 1.35923 14.0445 1.95577C14.641 2.55231 14.9113 3.31232 15.0408 4.27548C15.1673 5.21647 15.1673 6.4225 15.1673 7.96143V8.03792C15.1673 9.57685 15.1673 10.7829 15.0408 11.7239C14.9113 12.687 14.641 13.447 14.0445 14.0436C13.4922 14.5959 12.7993 14.8689 11.9335 15.009C11.0823 15.1468 10.0116 15.1635 8.66816 15.166C8.39202 15.1665 8.16776 14.943 8.16726 14.6669C8.16676 14.3907 8.39022 14.1665 8.66636 14.166C10.0263 14.1635 11.0151 14.1446 11.7737 14.0218C12.5177 13.9014 12.985 13.6889 13.3374 13.3365C13.7172 12.9567 13.9351 12.4429 14.0497 11.5906C14.1662 10.724 14.1673 9.58516 14.1673 7.99967C14.1673 6.41419 14.1662 5.27538 14.0497 4.40873C13.9351 3.55646 13.7172 3.04264 13.3374 2.66287C12.9576 2.2831 12.4438 2.06517 11.5915 1.95059C10.7249 1.83407 9.58608 1.83301 8.00059 1.83301C6.41511 1.83301 5.2763 1.83407 4.40964 1.95059C3.55738 2.06517 3.04356 2.2831 2.66379 2.66287C2.31138 3.01528 2.09885 3.48252 1.97842 4.22655C1.85562 4.98519 1.83676 5.97396 1.83431 7.33391C1.83381 7.61005 1.60955 7.8335 1.33341 7.83301C1.05727 7.83251 0.833815 7.60825 0.834313 7.33211C0.836732 5.98867 0.85349 4.91795 0.991267 4.06676C1.13141 3.20096 1.40441 2.50804 1.95668 1.95577C2.55322 1.35923 3.31324 1.089 4.2764 0.959506C5.21739 0.832993 6.42341 0.832999 7.96234 0.833008Z" fill="white"/>
    <path d="M8.33399 4.66634C8.33399 4.3902 8.55784 4.16634 8.83399 4.16634H11.334C11.6101 4.16634 11.834 4.3902 11.834 4.66634V7.16634C11.834 7.44248 11.6101 7.66634 11.334 7.66634C11.0578 7.66634 10.834 7.44248 10.834 7.16634V5.87345L8.35421 8.35323C8.15894 8.54849 7.84236 8.54849 7.6471 8.35323C7.45184 8.15797 7.45184 7.84138 7.6471 7.64612L10.1269 5.16634H8.83399C8.55784 5.16634 8.33399 4.94248 8.33399 4.66634Z" fill="white"/>
    <path fill-rule="evenodd" clip-rule="evenodd" d="M3.96599 8.83301C3.367 8.83299 2.86752 8.83297 2.471 8.88628C2.05247 8.94255 1.6746 9.06633 1.37096 9.36998C1.06731 9.67363 0.94353 10.0515 0.887261 10.47C0.83395 10.8665 0.833966 11.366 0.833985 11.965V12.0343C0.833966 12.6333 0.83395 13.1328 0.887261 13.5293C0.94353 13.9479 1.06731 14.3257 1.37096 14.6294C1.6746 14.933 2.05247 15.0568 2.471 15.1131C2.86752 15.1664 3.36699 15.1664 3.96597 15.1663H4.03532C4.63429 15.1664 5.13379 15.1664 5.53031 15.1131C5.94884 15.0568 6.3267 14.933 6.63035 14.6294C6.934 14.3257 7.05778 13.9479 7.11405 13.5293C7.16736 13.1328 7.16734 12.6333 7.16732 12.0344V11.965C7.16734 11.366 7.16736 10.8665 7.11405 10.47C7.05778 10.0515 6.934 9.67363 6.63035 9.36998C6.3267 9.06633 5.94884 8.94255 5.53031 8.88628C5.13379 8.83297 4.63431 8.83299 4.03532 8.83301H3.96599ZM2.07806 10.0771C2.16494 9.99021 2.29661 9.91873 2.60425 9.87737C2.92627 9.83407 3.35798 9.83301 4.00065 9.83301C4.64333 9.83301 5.07503 9.83407 5.39706 9.87737C5.7047 9.91873 5.83636 9.99021 5.92324 10.0771C6.01012 10.164 6.0816 10.2956 6.12296 10.6033C6.16626 10.9253 6.16732 11.357 6.16732 11.9997C6.16732 12.6423 6.16626 13.0741 6.12296 13.3961C6.0816 13.7037 6.01012 13.8354 5.92324 13.9223C5.83636 14.0091 5.7047 14.0806 5.39706 14.122C5.07503 14.1653 4.64333 14.1663 4.00065 14.1663C3.35798 14.1663 2.92627 14.1653 2.60425 14.122C2.29661 14.0806 2.16494 14.0091 2.07806 13.9223C1.99119 13.8354 1.9197 13.7037 1.87834 13.3961C1.83505 13.0741 1.83399 12.6423 1.83399 11.9997C1.83399 11.357 1.83505 10.9253 1.87834 10.6033C1.9197 10.2956 1.99119 10.164 2.07806 10.0771Z" fill="white"/>
  </g>
  <defs>
    <clipPath id="clip0_2592_30778">
      <rect width="16" height="16" rx="5" fill="white"/>
    </clipPath>
  </defs>
</svg>