<svg xmlns="http://www.w3.org/2000/svg" width="16" height="16" viewBox="0 0 16 16" fill="none">
  <g clip-path="url(#clip0_2325_715)">
    <path d="M7.96234 0.833496H8.03885C9.57777 0.833488 10.7838 0.833481 11.7248 0.959994C12.6879 1.08949 13.448 1.35971 14.0445 1.95625C14.641 2.55279 14.9113 3.31281 15.0408 4.27597C15.1673 5.21696 15.1673 6.42298 15.1673 7.96192V8.03841C15.1673 9.57734 15.1673 10.7834 15.0408 11.7244C14.9113 12.6875 14.641 13.4475 14.0445 14.0441C13.4922 14.5963 12.7993 14.8693 11.9335 15.0095C11.0823 15.1473 10.0116 15.164 8.66816 15.1664C8.39202 15.1669 8.16776 14.9435 8.16726 14.6673C8.16676 14.3912 8.39022 14.1669 8.66636 14.1664C10.0263 14.164 11.0151 14.1451 11.7737 14.0223C12.5177 13.9019 12.985 13.6894 13.3374 13.337C13.7172 12.9572 13.9351 12.4434 14.0497 11.5911C14.1662 10.7245 14.1673 9.58565 14.1673 8.00016C14.1673 6.41468 14.1662 5.27587 14.0497 4.40921C13.9351 3.55695 13.7172 3.04313 13.3374 2.66336C12.9576 2.28359 12.4438 2.06566 11.5915 1.95108C10.7249 1.83456 9.58608 1.8335 8.00059 1.8335C6.41511 1.8335 5.2763 1.83456 4.40964 1.95108C3.55738 2.06566 3.04356 2.28359 2.66379 2.66336C2.31138 3.01577 2.09885 3.48301 1.97842 4.22704C1.85562 4.98568 1.83676 5.97445 1.83431 7.3344C1.83381 7.61054 1.60955 7.83399 1.33341 7.8335C1.05727 7.833 0.833815 7.60874 0.834313 7.3326C0.836732 5.98916 0.85349 4.91844 0.991267 4.06725C1.13141 3.20145 1.40441 2.50853 1.95668 1.95625C2.55322 1.35971 3.31324 1.08949 4.2764 0.959994C5.21739 0.833481 6.42341 0.833488 7.96234 0.833496Z" fill="#1A1B1D"/>
    <path d="M11.0007 8.00016C11.0007 8.27631 10.7768 8.50016 10.5007 8.50016H8.00065C7.72451 8.50016 7.50065 8.27631 7.50065 8.00016V5.50016C7.50065 5.22402 7.72451 5.00016 8.00065 5.00016C8.2768 5.00016 8.50065 5.22402 8.50065 5.50016V6.79306L10.9804 4.31328C11.1757 4.11801 11.4923 4.11801 11.6875 4.31328C11.8828 4.50854 11.8828 4.82512 11.6875 5.02038L9.20776 7.50016H10.5007C10.7768 7.50016 11.0007 7.72402 11.0007 8.00016Z" fill="#1A1B1D"/>
    <path fill-rule="evenodd" clip-rule="evenodd" d="M3.96599 8.8335C3.367 8.83348 2.86752 8.83346 2.471 8.88677C2.05247 8.94304 1.6746 9.06682 1.37096 9.37047C1.06731 9.67411 0.94353 10.052 0.887261 10.4705C0.83395 10.867 0.833966 11.3665 0.833985 11.9655V12.0348C0.833966 12.6338 0.83395 13.1333 0.887261 13.5298C0.94353 13.9483 1.06731 14.3262 1.37096 14.6299C1.6746 14.9335 2.05247 15.0573 2.471 15.1136C2.86752 15.1669 3.36699 15.1669 3.96597 15.1668H4.03532C4.63429 15.1669 5.13379 15.1669 5.53031 15.1136C5.94884 15.0573 6.3267 14.9335 6.63035 14.6299C6.934 14.3262 7.05778 13.9483 7.11405 13.5298C7.16736 13.1333 7.16734 12.6338 7.16732 12.0348V11.9655C7.16734 11.3665 7.16736 10.867 7.11405 10.4705C7.05778 10.052 6.934 9.67411 6.63035 9.37047C6.3267 9.06682 5.94884 8.94304 5.53031 8.88677C5.13379 8.83346 4.63431 8.83348 4.03532 8.8335H3.96599ZM2.07806 10.0776C2.16494 9.9907 2.29661 9.91921 2.60425 9.87785C2.92627 9.83456 3.35798 9.8335 4.00065 9.8335C4.64333 9.8335 5.07503 9.83456 5.39706 9.87785C5.7047 9.91921 5.83636 9.9907 5.92324 10.0776C6.01012 10.1645 6.0816 10.2961 6.12296 10.6038C6.16626 10.9258 6.16732 11.3575 6.16732 12.0002C6.16732 12.6428 6.16626 13.0745 6.12296 13.3966C6.0816 13.7042 6.01012 13.8359 5.92324 13.9228C5.83636 14.0096 5.7047 14.0811 5.39706 14.1225C5.07503 14.1658 4.64333 14.1668 4.00065 14.1668C3.35798 14.1668 2.92627 14.1658 2.60425 14.1225C2.29661 14.0811 2.16494 14.0096 2.07806 13.9228C1.99119 13.8359 1.9197 13.7042 1.87834 13.3966C1.83505 13.0745 1.83399 12.6428 1.83399 12.0002C1.83399 11.3575 1.83505 10.9258 1.87834 10.6038C1.9197 10.2961 1.99119 10.1645 2.07806 10.0776Z" fill="#1A1B1D"/>
  </g>
  <defs>
    <clipPath id="clip0_2325_715">
      <rect width="16" height="16" rx="5" fill="white"/>
    </clipPath>
  </defs>
</svg>