<svg xmlns="http://www.w3.org/2000/svg" width="16" height="16" viewBox="0 0 16 16" fill="none">
  <path fill-rule="evenodd" clip-rule="evenodd" d="M9.37029 1.5C10.5955 1.49999 11.5659 1.49998 12.3254 1.60209C13.107 1.70718 13.7396 1.92859 14.2385 2.4275C14.7374 2.9264 14.9588 3.55904 15.0639 4.34065C15.166 5.10013 15.166 6.07054 15.166 7.29571V8.70428C15.166 9.92945 15.166 10.8999 15.0639 11.6593C14.9588 12.441 14.7374 13.0736 14.2385 13.5725C13.7396 14.0714 13.107 14.2928 12.3254 14.3979C11.5659 14.5 10.5955 14.5 9.37032 14.5H6.62841C6.41892 14.5 6.21685 14.5 6.02203 14.4995C6.01451 14.4998 6.00695 14.5 5.99935 14.5C5.99077 14.5 5.98224 14.4998 5.97377 14.4994C5.0511 14.4965 4.29219 14.4811 3.67333 14.3979C2.89172 14.2928 2.25909 14.0714 1.76018 13.5725C1.26127 13.0736 1.03986 12.441 0.934772 11.6593C0.832664 10.8999 0.832672 9.92947 0.832682 8.70431V7.29573C0.832672 6.07057 0.832664 5.10012 0.934772 4.34065C1.03986 3.55904 1.26127 2.9264 1.76018 2.4275C2.25909 1.92859 2.89172 1.70718 3.67333 1.60209C4.29218 1.51889 5.0511 1.50349 5.97377 1.50064C5.98225 1.50022 5.99077 1.5 5.99935 1.5C6.00695 1.5 6.01451 1.50017 6.02203 1.50051C6.21685 1.5 6.4189 1.5 6.62839 1.5H9.37029ZM6.49935 2.50001C6.55419 2.5 6.60974 2.5 6.66601 2.5H9.33268C10.6039 2.5 11.507 2.50106 12.1921 2.59317C12.8628 2.68335 13.2493 2.85246 13.5314 3.1346C13.8136 3.41674 13.9827 3.80317 14.0728 4.4739C14.165 5.15901 14.166 6.06212 14.166 7.33333V8.66667C14.166 9.93788 14.165 10.841 14.0728 11.5261C13.9827 12.1968 13.8136 12.5833 13.5314 12.8654C13.2493 13.1475 12.8628 13.3167 12.1921 13.4068C11.507 13.4989 10.6039 13.5 9.33268 13.5H6.66601C6.60974 13.5 6.55419 13.5 6.49935 13.5L6.49935 2.50001ZM5.49935 13.4962C4.81026 13.4889 4.26056 13.4679 3.80658 13.4068C3.13585 13.3167 2.74942 13.1475 2.46729 12.8654C2.18514 12.5833 2.01603 12.1968 1.92585 11.5261C1.83374 10.841 1.83268 9.93788 1.83268 8.66667V7.33333C1.83268 6.06212 1.83374 5.15901 1.92585 4.4739C2.01603 3.80317 2.18514 3.41674 2.46729 3.1346C2.74942 2.85246 3.13585 2.68335 3.80658 2.59317C4.26056 2.53214 4.81026 2.51108 5.49935 2.50382L5.49935 13.4962Z" fill="#1A1B1D" fill-opacity="0.7"/>
</svg>