<svg xmlns="http://www.w3.org/2000/svg" width="16" height="16" viewBox="0 0 16 16" fill="none">
  <path fill-rule="evenodd" clip-rule="evenodd" d="M4.73252 0.833523C4.76456 0.833537 4.79706 0.833551 4.83006 0.833551H11.17C11.203 0.833551 11.2355 0.833537 11.2676 0.833523C11.9454 0.833226 12.4119 0.833022 12.8048 0.969727C13.5467 1.2279 14.1228 1.825 14.3698 2.57722L13.8947 2.73319L14.3698 2.57722C14.5005 2.9753 14.5003 3.44853 14.5001 4.15119C14.5001 4.18264 14.5 4.21455 14.5 4.24693V13.583C14.5 14.5598 13.3487 15.1414 12.5904 14.4475C12.5375 14.399 12.4626 14.399 12.4097 14.4475L12.0876 14.7422C11.4688 15.3084 10.5313 15.3084 9.9125 14.7422C9.67585 14.5256 9.32424 14.5256 9.08759 14.7422C8.4688 15.3084 7.53129 15.3084 6.9125 14.7422C6.67585 14.5256 6.32424 14.5256 6.08759 14.7422C5.4688 15.3084 4.53129 15.3084 3.9125 14.7422L3.59044 14.4475C3.53745 14.399 3.46264 14.399 3.40965 14.4475C2.65137 15.1414 1.50004 14.5598 1.50004 13.583V4.24693C1.50004 4.21455 1.50003 4.18264 1.50002 4.1512C1.49977 3.44853 1.4996 2.9753 1.6303 2.57722C1.87727 1.825 2.45335 1.2279 3.19532 0.969727C3.5882 0.833022 4.05469 0.833226 4.73252 0.833523ZM4.83006 1.83355C4.016 1.83355 3.7356 1.84054 3.52395 1.91419C3.08437 2.06714 2.73279 2.42502 2.5804 2.88917C2.50634 3.11472 2.50004 3.41214 2.50004 4.24693V13.583C2.50004 13.6624 2.53999 13.7109 2.59011 13.7341C2.61622 13.7461 2.64176 13.7493 2.66304 13.7464C2.6818 13.7439 2.70607 13.7358 2.73457 13.7098C3.16969 13.3116 3.8304 13.3116 4.26552 13.7098L4.58759 14.0045C4.82424 14.221 5.17584 14.221 5.4125 14.0045C6.03129 13.4382 6.9688 13.4382 7.58759 14.0045C7.82424 14.221 8.17585 14.221 8.4125 14.0045C9.03129 13.4382 9.9688 13.4382 10.5876 14.0045C10.8242 14.221 11.1758 14.221 11.4125 14.0045L11.7346 13.7098C12.1697 13.3116 12.8304 13.3116 13.2655 13.7098C13.294 13.7358 13.3183 13.7439 13.3371 13.7464C13.3583 13.7493 13.3839 13.7461 13.41 13.7341C13.4601 13.7109 13.5 13.6624 13.5 13.583V4.24693C13.5 3.41214 13.4937 3.11472 13.4197 2.88917C13.2673 2.42502 12.9157 2.06714 12.4761 1.91419C12.2645 1.84054 11.9841 1.83355 11.17 1.83355H4.83006ZM9.99972 4.96058C10.2057 5.1445 10.2236 5.46057 10.0397 5.66656L7.65873 8.33323C7.56387 8.43947 7.42819 8.50022 7.28576 8.50022C7.14333 8.50022 7.00765 8.43947 6.91279 8.33323L5.96041 7.26656C5.77649 7.06057 5.79439 6.7445 6.00037 6.56058C6.20636 6.37667 6.52243 6.39456 6.70635 6.60054L7.28576 7.24949L9.29374 5.00054C9.47766 4.79456 9.79374 4.77667 9.99972 4.96058ZM4.50004 10.3336C4.50004 10.0574 4.7239 9.83355 5.00004 9.83355H11C11.2762 9.83355 11.5 10.0574 11.5 10.3336C11.5 10.6097 11.2762 10.8336 11 10.8336H5.00004C4.7239 10.8336 4.50004 10.6097 4.50004 10.3336Z" fill="#1A1B1D"/>
</svg>